<svg xmlns="http://www.w3.org/2000/svg" version="1.1" xmlns:xlink="http://www.w3.org/1999/xlink" xmlns:svgjs="http://svgjs.dev/svgjs" viewBox="0 0 800 800"><defs><linearGradient x1="50%" y1="0%" x2="50%" y2="100%" id="ffflurry-grad" gradientTransform="rotate(270)"><stop stop-color="hsl(238, 82%, 13%)" stop-opacity="1" offset="0%"></stop><stop stop-color="hsl(230, 55%, 50%)" stop-opacity="1" offset="45%"></stop><stop stop-color="hsl(230, 55%, 70%)" stop-opacity="1" offset="100%"></stop></linearGradient></defs><rect width="100%" height="100%" fill="hsl(238, 82%, 13%)"></rect><g fill="url(#ffflurry-grad)"><rect width="108" height="1" x="408" y="345.5" rx="0.5" transform="rotate(157, 462, 346)" opacity="0.61"></rect><rect width="198" height="1" x="359" y="148.5" rx="0.5" transform="rotate(157, 458, 149)" opacity="0.69"></rect><rect width="261" height="1" x="299.5" y="198.5" rx="0.5" transform="rotate(157, 430, 199)" opacity="0.37"></rect><rect width="320" height="1" x="246" y="117.5" rx="0.5" transform="rotate(157, 406, 118)" opacity="0.81"></rect><rect width="103" height="1" x="342.5" y="494.5" rx="0.5" transform="rotate(157, 394, 495)" opacity="0.53"></rect><rect width="265" height="1" x="-61.5" y="682.5" rx="0.5" transform="rotate(157, 71, 683)" opacity="0.92"></rect><rect width="216" height="1" x="571" y="576.5" rx="0.5" transform="rotate(157, 679, 577)" opacity="0.69"></rect><rect width="385" height="1" x="74.5" y="605.5" rx="0.5" transform="rotate(157, 267, 606)" opacity="0.10"></rect><rect width="196" height="1" x="682" y="36.5" rx="0.5" transform="rotate(157, 780, 37)" opacity="0.48"></rect><rect width="327" height="1" x="411.5" y="409.5" rx="0.5" transform="rotate(157, 575, 410)" opacity="0.63"></rect><rect width="345" height="1" x="-28.5" y="595.5" rx="0.5" transform="rotate(157, 144, 596)" opacity="0.09"></rect><rect width="315" height="1" x="-52.5" y="475.5" rx="0.5" transform="rotate(157, 105, 476)" opacity="0.30"></rect><rect width="44" height="1" x="233" y="335.5" rx="0.5" transform="rotate(157, 255, 336)" opacity="0.38"></rect><rect width="207" height="1" x="17.5" y="709.5" rx="0.5" transform="rotate(157, 121, 710)" opacity="0.35"></rect><rect width="313" height="1" x="-116.5" y="540.5" rx="0.5" transform="rotate(157, 40, 541)" opacity="0.91"></rect><rect width="90" height="1" x="606" y="323.5" rx="0.5" transform="rotate(157, 651, 324)" opacity="0.18"></rect><rect width="239" height="1" x="539.5" y="44.5" rx="0.5" transform="rotate(157, 659, 45)" opacity="0.11"></rect><rect width="78" height="1" x="419" y="76.5" rx="0.5" transform="rotate(157, 458, 77)" opacity="0.11"></rect><rect width="427" height="1" x="296.5" y="187.5" rx="0.5" transform="rotate(157, 510, 188)" opacity="0.07"></rect><rect width="155" height="1" x="-9.5" y="782.5" rx="0.5" transform="rotate(157, 68, 783)" opacity="0.56"></rect><rect width="270" height="1" x="486" y="585.5" rx="0.5" transform="rotate(157, 621, 586)" opacity="0.91"></rect><rect width="335" height="1" x="594.5" y="406.5" rx="0.5" transform="rotate(157, 762, 407)" opacity="0.60"></rect><rect width="124" height="1" x="534" y="514.5" rx="0.5" transform="rotate(157, 596, 515)" opacity="0.22"></rect><rect width="290" height="1" x="-56" y="566.5" rx="0.5" transform="rotate(157, 89, 567)" opacity="0.53"></rect><rect width="298" height="1" x="246" y="753.5" rx="0.5" transform="rotate(157, 395, 754)" opacity="0.40"></rect><rect width="35" height="1" x="514.5" y="279.5" rx="0.5" transform="rotate(157, 532, 280)" opacity="0.53"></rect><rect width="136" height="1" x="613" y="254.5" rx="0.5" transform="rotate(157, 681, 255)" opacity="0.65"></rect><rect width="100" height="1" x="510" y="612.5" rx="0.5" transform="rotate(157, 560, 613)" opacity="0.18"></rect><rect width="123" height="1" x="425.5" y="575.5" rx="0.5" transform="rotate(157, 487, 576)" opacity="0.92"></rect><rect width="71" height="1" x="169.5" y="770.5" rx="0.5" transform="rotate(157, 205, 771)" opacity="0.94"></rect><rect width="318" height="1" x="226" y="611.5" rx="0.5" transform="rotate(157, 385, 612)" opacity="0.94"></rect><rect width="280" height="1" x="-11" y="184.5" rx="0.5" transform="rotate(157, 129, 185)" opacity="0.67"></rect><rect width="83" height="1" x="490.5" y="341.5" rx="0.5" transform="rotate(157, 532, 342)" opacity="0.11"></rect><rect width="286" height="1" x="190" y="440.5" rx="0.5" transform="rotate(157, 333, 441)" opacity="0.60"></rect><rect width="211" height="1" x="-77.5" y="78.5" rx="0.5" transform="rotate(157, 28, 79)" opacity="0.64"></rect><rect width="83" height="1" x="542.5" y="657.5" rx="0.5" transform="rotate(157, 584, 658)" opacity="0.83"></rect><rect width="128" height="1" x="64" y="527.5" rx="0.5" transform="rotate(157, 128, 528)" opacity="0.53"></rect><rect width="343" height="1" x="-143.5" y="166.5" rx="0.5" transform="rotate(157, 28, 167)" opacity="0.99"></rect><rect width="112" height="1" x="379" y="290.5" rx="0.5" transform="rotate(157, 435, 291)" opacity="0.22"></rect><rect width="181" height="1" x="-13.5" y="726.5" rx="0.5" transform="rotate(157, 77, 727)" opacity="0.80"></rect><rect width="128" height="1" x="424" y="287.5" rx="0.5" transform="rotate(157, 488, 288)" opacity="0.40"></rect><rect width="281" height="1" x="542.5" y="765.5" rx="0.5" transform="rotate(157, 683, 766)" opacity="0.96"></rect><rect width="359" height="1" x="246.5" y="553.5" rx="0.5" transform="rotate(157, 426, 554)" opacity="0.39"></rect><rect width="384" height="1" x="3" y="199.5" rx="0.5" transform="rotate(157, 195, 200)" opacity="0.53"></rect><rect width="210" height="1" x="257" y="175.5" rx="0.5" transform="rotate(157, 362, 176)" opacity="0.27"></rect><rect width="121" height="1" x="-51.5" y="774.5" rx="0.5" transform="rotate(157, 9, 775)" opacity="0.70"></rect><rect width="207" height="1" x="-74.5" y="361.5" rx="0.5" transform="rotate(157, 29, 362)" opacity="0.60"></rect><rect width="327" height="1" x="609.5" y="644.5" rx="0.5" transform="rotate(157, 773, 645)" opacity="0.12"></rect><rect width="53" height="1" x="613.5" y="784.5" rx="0.5" transform="rotate(157, 640, 785)" opacity="0.60"></rect><rect width="25" height="1" x="328.5" y="729.5" rx="0.5" transform="rotate(157, 341, 730)" opacity="0.75"></rect><rect width="287" height="1" x="-33.5" y="333.5" rx="0.5" transform="rotate(157, 110, 334)" opacity="0.51"></rect><rect width="90" height="1" x="582" y="702.5" rx="0.5" transform="rotate(157, 627, 703)" opacity="0.07"></rect><rect width="86" height="1" x="675" y="641.5" rx="0.5" transform="rotate(157, 718, 642)" opacity="0.08"></rect><rect width="109" height="1" x="267.5" y="749.5" rx="0.5" transform="rotate(157, 322, 750)" opacity="0.47"></rect><rect width="73" height="1" x="135.5" y="441.5" rx="0.5" transform="rotate(157, 172, 442)" opacity="0.11"></rect><rect width="358" height="1" x="-34" y="263.5" rx="0.5" transform="rotate(157, 145, 264)" opacity="0.14"></rect><rect width="147" height="1" x="586.5" y="655.5" rx="0.5" transform="rotate(157, 660, 656)" opacity="0.99"></rect><rect width="244" height="1" x="-74" y="412.5" rx="0.5" transform="rotate(157, 48, 413)" opacity="0.78"></rect><rect width="459" height="1" x="25.5" y="233.5" rx="0.5" transform="rotate(157, 255, 234)" opacity="0.21"></rect><rect width="363" height="1" x="26.5" y="37.5" rx="0.5" transform="rotate(157, 208, 38)" opacity="0.55"></rect><rect width="231" height="1" x="58.5" y="105.5" rx="0.5" transform="rotate(157, 174, 106)" opacity="0.84"></rect><rect width="371" height="1" x="540.5" y="305.5" rx="0.5" transform="rotate(157, 726, 306)" opacity="0.55"></rect><rect width="214" height="1" x="209" y="648.5" rx="0.5" transform="rotate(157, 316, 649)" opacity="0.99"></rect><rect width="211" height="1" x="163.5" y="769.5" rx="0.5" transform="rotate(157, 269, 770)" opacity="0.47"></rect><rect width="113" height="1" x="119.5" y="705.5" rx="0.5" transform="rotate(157, 176, 706)" opacity="0.66"></rect><rect width="396" height="1" x="490" y="392.5" rx="0.5" transform="rotate(157, 688, 393)" opacity="0.20"></rect><rect width="218" height="1" x="206" y="353.5" rx="0.5" transform="rotate(157, 315, 354)" opacity="0.45"></rect><rect width="40" height="1" x="37" y="749.5" rx="0.5" transform="rotate(157, 57, 750)" opacity="0.46"></rect><rect width="185" height="1" x="688.5" y="586.5" rx="0.5" transform="rotate(157, 781, 587)" opacity="0.92"></rect><rect width="349" height="1" x="129.5" y="281.5" rx="0.5" transform="rotate(157, 304, 282)" opacity="0.59"></rect><rect width="32" height="1" x="354" y="658.5" rx="0.5" transform="rotate(157, 370, 659)" opacity="0.87"></rect><rect width="175" height="1" x="647.5" y="587.5" rx="0.5" transform="rotate(157, 735, 588)" opacity="0.36"></rect><rect width="483" height="1" x="386.5" y="447.5" rx="0.5" transform="rotate(157, 628, 448)" opacity="0.71"></rect><rect width="30" height="1" x="10" y="633.5" rx="0.5" transform="rotate(157, 25, 634)" opacity="0.72"></rect><rect width="257" height="1" x="426.5" y="114.5" rx="0.5" transform="rotate(157, 555, 115)" opacity="0.39"></rect><rect width="223" height="1" x="471.5" y="251.5" rx="0.5" transform="rotate(157, 583, 252)" opacity="0.45"></rect><rect width="205" height="1" x="-62.5" y="305.5" rx="0.5" transform="rotate(157, 40, 306)" opacity="0.51"></rect><rect width="351" height="1" x="409.5" y="178.5" rx="0.5" transform="rotate(157, 585, 179)" opacity="0.31"></rect><rect width="49" height="1" x="194.5" y="520.5" rx="0.5" transform="rotate(157, 219, 521)" opacity="0.86"></rect><rect width="414" height="1" x="328" y="460.5" rx="0.5" transform="rotate(157, 535, 461)" opacity="0.08"></rect><rect width="166" height="1" x="695" y="705.5" rx="0.5" transform="rotate(157, 778, 706)" opacity="0.14"></rect><rect width="75" height="1" x="718.5" y="767.5" rx="0.5" transform="rotate(157, 756, 768)" opacity="0.56"></rect><rect width="456" height="1" x="59" y="53.5" rx="0.5" transform="rotate(157, 287, 54)" opacity="0.54"></rect><rect width="300" height="1" x="89" y="719.5" rx="0.5" transform="rotate(157, 239, 720)" opacity="0.39"></rect><rect width="316" height="1" x="572" y="696.5" rx="0.5" transform="rotate(157, 730, 697)" opacity="0.16"></rect><rect width="215" height="1" x="506.5" y="756.5" rx="0.5" transform="rotate(157, 614, 757)" opacity="0.53"></rect><rect width="108" height="1" x="441" y="629.5" rx="0.5" transform="rotate(157, 495, 630)" opacity="0.08"></rect><rect width="84" height="1" x="108" y="766.5" rx="0.5" transform="rotate(157, 150, 767)" opacity="0.39"></rect><rect width="112" height="1" x="426" y="486.5" rx="0.5" transform="rotate(157, 482, 487)" opacity="0.64"></rect><rect width="347" height="1" x="200.5" y="30.5" rx="0.5" transform="rotate(157, 374, 31)" opacity="0.28"></rect><rect width="373" height="1" x="-68.5" y="650.5" rx="0.5" transform="rotate(157, 118, 651)" opacity="0.65"></rect><rect width="427" height="1" x="129.5" y="561.5" rx="0.5" transform="rotate(157, 343, 562)" opacity="0.57"></rect><rect width="275" height="1" x="587.5" y="30.5" rx="0.5" transform="rotate(157, 725, 31)" opacity="0.80"></rect><rect width="40" height="1" x="13" y="782.5" rx="0.5" transform="rotate(157, 33, 783)" opacity="0.32"></rect><rect width="148" height="1" x="702" y="287.5" rx="0.5" transform="rotate(157, 776, 288)" opacity="0.30"></rect><rect width="67" height="1" x="224.5" y="428.5" rx="0.5" transform="rotate(157, 258, 429)" opacity="0.71"></rect><rect width="293" height="1" x="-113.5" y="479.5" rx="0.5" transform="rotate(157, 33, 480)" opacity="0.56"></rect><rect width="327" height="1" x="507.5" y="131.5" rx="0.5" transform="rotate(157, 671, 132)" opacity="0.39"></rect><rect width="129" height="1" x="513.5" y="721.5" rx="0.5" transform="rotate(157, 578, 722)" opacity="0.48"></rect><rect width="63" height="1" x="437.5" y="240.5" rx="0.5" transform="rotate(157, 469, 241)" opacity="0.93"></rect><rect width="99" height="1" x="493.5" y="562.5" rx="0.5" transform="rotate(157, 543, 563)" opacity="0.35"></rect><rect width="82" height="1" x="-15" y="246.5" rx="0.5" transform="rotate(157, 26, 247)" opacity="0.87"></rect><rect width="268" height="1" x="330" y="763.5" rx="0.5" transform="rotate(157, 464, 764)" opacity="0.87"></rect><rect width="120" height="1" x="641" y="491.5" rx="0.5" transform="rotate(157, 701, 492)" opacity="0.71"></rect><rect width="305" height="1" x="323.5" y="396.5" rx="0.5" transform="rotate(157, 476, 397)" opacity="0.52"></rect><rect width="270" height="1" x="365" y="31.5" rx="0.5" transform="rotate(157, 500, 32)" opacity="0.07"></rect><rect width="102" height="1" x="-31" y="735.5" rx="0.5" transform="rotate(157, 20, 736)" opacity="0.99"></rect><rect width="140" height="1" x="539" y="372.5" rx="0.5" transform="rotate(157, 609, 373)" opacity="0.13"></rect><rect width="195" height="1" x="233.5" y="783.5" rx="0.5" transform="rotate(157, 331, 784)" opacity="0.74"></rect><rect width="231" height="1" x="-96.5" y="581.5" rx="0.5" transform="rotate(157, 19, 582)" opacity="0.71"></rect><rect width="183" height="1" x="270.5" y="255.5" rx="0.5" transform="rotate(157, 362, 256)" opacity="0.74"></rect><rect width="183" height="1" x="176.5" y="142.5" rx="0.5" transform="rotate(157, 268, 143)" opacity="0.63"></rect><rect width="241" height="1" x="282.5" y="240.5" rx="0.5" transform="rotate(157, 403, 241)" opacity="0.90"></rect><rect width="373" height="1" x="7.5" y="302.5" rx="0.5" transform="rotate(157, 194, 303)" opacity="0.52"></rect><rect width="108" height="1" x="293" y="104.5" rx="0.5" transform="rotate(157, 347, 105)" opacity="0.58"></rect><rect width="98" height="1" x="48" y="119.5" rx="0.5" transform="rotate(157, 97, 120)" opacity="0.87"></rect><rect width="245" height="1" x="634.5" y="189.5" rx="0.5" transform="rotate(157, 757, 190)" opacity="0.60"></rect><rect width="99" height="1" x="318.5" y="308.5" rx="0.5" transform="rotate(157, 368, 309)" opacity="0.29"></rect><rect width="286" height="1" x="282" y="433.5" rx="0.5" transform="rotate(157, 425, 434)" opacity="0.53"></rect><rect width="176" height="1" x="-73" y="671.5" rx="0.5" transform="rotate(157, 15, 672)" opacity="0.70"></rect><rect width="38" height="1" x="418" y="622.5" rx="0.5" transform="rotate(157, 437, 623)" opacity="0.41"></rect><rect width="167" height="1" x="443.5" y="397.5" rx="0.5" transform="rotate(157, 527, 398)" opacity="0.55"></rect><rect width="267" height="1" x="454.5" y="318.5" rx="0.5" transform="rotate(157, 588, 319)" opacity="0.95"></rect><rect width="74" height="1" x="32" y="199.5" rx="0.5" transform="rotate(157, 69, 200)" opacity="0.81"></rect><rect width="147" height="1" x="338.5" y="333.5" rx="0.5" transform="rotate(157, 412, 334)" opacity="0.45"></rect><rect width="128" height="1" x="430" y="531.5" rx="0.5" transform="rotate(157, 494, 532)" opacity="0.78"></rect><rect width="187" height="1" x="192.5" y="517.5" rx="0.5" transform="rotate(157, 286, 518)" opacity="0.85"></rect><rect width="293" height="1" x="620.5" y="518.5" rx="0.5" transform="rotate(157, 767, 519)" opacity="0.46"></rect><rect width="182" height="1" x="561" y="204.5" rx="0.5" transform="rotate(157, 652, 205)" opacity="0.14"></rect><rect width="244" height="1" x="630" y="102.5" rx="0.5" transform="rotate(157, 752, 103)" opacity="0.30"></rect><rect width="85" height="1" x="228.5" y="683.5" rx="0.5" transform="rotate(157, 271, 684)" opacity="0.85"></rect><rect width="305" height="1" x="-62.5" y="253.5" rx="0.5" transform="rotate(157, 90, 254)" opacity="0.16"></rect><rect width="243" height="1" x="70.5" y="377.5" rx="0.5" transform="rotate(157, 192, 378)" opacity="0.25"></rect><rect width="38" height="1" x="519" y="716.5" rx="0.5" transform="rotate(157, 538, 717)" opacity="0.91"></rect><rect width="389" height="1" x="185.5" y="378.5" rx="0.5" transform="rotate(157, 380, 379)" opacity="0.47"></rect><rect width="101" height="1" x="267.5" y="213.5" rx="0.5" transform="rotate(157, 318, 214)" opacity="0.75"></rect><rect width="192" height="1" x="101" y="646.5" rx="0.5" transform="rotate(157, 197, 647)" opacity="0.89"></rect><rect width="238" height="1" x="469" y="46.5" rx="0.5" transform="rotate(157, 588, 47)" opacity="0.75"></rect><rect width="194" height="1" x="100" y="481.5" rx="0.5" transform="rotate(157, 197, 482)" opacity="0.87"></rect><rect width="354" height="1" x="23" y="570.5" rx="0.5" transform="rotate(157, 200, 571)" opacity="0.80"></rect><rect width="399" height="1" x="-110.5" y="32.5" rx="0.5" transform="rotate(157, 89, 33)" opacity="0.19"></rect><rect width="101" height="1" x="-20.5" y="698.5" rx="0.5" transform="rotate(157, 30, 699)" opacity="0.93"></rect><rect width="174" height="1" x="259" y="699.5" rx="0.5" transform="rotate(157, 346, 700)" opacity="0.37"></rect><rect width="189" height="1" x="24.5" y="405.5" rx="0.5" transform="rotate(157, 119, 406)" opacity="0.11"></rect><rect width="32" height="1" x="673" y="718.5" rx="0.5" transform="rotate(157, 689, 719)" opacity="0.11"></rect><rect width="32" height="1" x="531" y="774.5" rx="0.5" transform="rotate(157, 547, 775)" opacity="0.32"></rect><rect width="179" height="1" x="-19.5" y="618.5" rx="0.5" transform="rotate(157, 70, 619)" opacity="0.54"></rect><rect width="313" height="1" x="281.5" y="689.5" rx="0.5" transform="rotate(157, 438, 690)" opacity="0.31"></rect><rect width="198" height="1" x="6" y="770.5" rx="0.5" transform="rotate(157, 105, 771)" opacity="0.28"></rect><rect width="231" height="1" x="389.5" y="691.5" rx="0.5" transform="rotate(157, 505, 692)" opacity="0.20"></rect></g></svg>